HIERARCHY
ROOT mixamorig:Hips
{
	OFFSET 0.000000 35.069874 -0.029489
	CHANNELS 6 Xposition Yposition Zposition Xrotation Yrotation Zrotation
	JOINT mixamorig:Spine
	{
		OFFSET 0.000000 6.876060 0.125662
		CHANNELS 3 Xrotation Yrotation Zrotation
		JOINT mixamorig:Spine1
		{
			OFFSET 0.000000 8.022060 0.146603
			CHANNELS 3 Xrotation Yrotation Zrotation
			JOINT mixamorig:Spine2
			{
				OFFSET 0.000000 9.168079 0.167547
				CHANNELS 3 Xrotation Yrotation Zrotation
				JOINT mixamorig:Neck
				{
					OFFSET 0.000000 10.314075 0.188489
					CHANNELS 3 Xrotation Yrotation Zrotation
					JOINT mixamorig:Head
					{
						OFFSET 0.000000 7.643753 -2.377445
						CHANNELS 3 Xrotation Yrotation Zrotation
						JOINT mixamorig:HeadTop_End
						{
							OFFSET 0.000000 43.788605 -13.619637
							CHANNELS 3 Xrotation Yrotation Zrotation
							End Site
							{
								OFFSET 0.000000 45.857788 0.000000
							}
						}
					}
				}
				JOINT mixamorig:LeftShoulder
				{
					OFFSET 4.392187 8.825001 0.174995
					CHANNELS 3 Xrotation Yrotation Zrotation
					JOINT mixamorig:LeftArm
					{
						OFFSET 8.774866 -2.970879 -0.026997
						CHANNELS 3 Xrotation Yrotation Zrotation
						JOINT mixamorig:LeftForeArm
						{
							OFFSET 8.450586 -0.797432 -0.648343
							CHANNELS 3 Xrotation Yrotation Zrotation
							JOINT mixamorig:LeftHand
							{
								OFFSET 18.458662 0.962311 0.193148
								CHANNELS 3 Xrotation Yrotation Zrotation
								JOINT mixamorig:LeftHandThumb1
								{
									OFFSET 2.379990 -1.333382 2.680594
									CHANNELS 3 Xrotation Yrotation Zrotation
									JOINT mixamorig:LeftHandThumb2
									{
										OFFSET 1.903984 -1.066746 2.144473
										CHANNELS 3 Xrotation Yrotation Zrotation
										JOINT mixamorig:LeftHandThumb3
										{
											OFFSET 0.966393 -1.489639 2.964555
											CHANNELS 3 Xrotation Yrotation Zrotation
											JOINT mixamorig:LeftHandThumb4
											{
												OFFSET 1.205181 -0.823021 1.625701
												CHANNELS 3 Xrotation Yrotation Zrotation
												End Site
												{
													OFFSET 1.050617 -0.818157 1.731923
												}
											}
										}
									}
								}
								JOINT mixamorig:LeftHandIndex1
								{
									OFFSET 7.830624 -0.787468 2.563931
									CHANNELS 3 Xrotation Yrotation Zrotation
									JOINT mixamorig:LeftHandIndex2
									{
										OFFSET 3.312897 -0.052605 1.515312
										CHANNELS 3 Xrotation Yrotation Zrotation
										JOINT mixamorig:LeftHandIndex3
										{
											OFFSET 3.460667 -0.207008 1.581951
											CHANNELS 3 Xrotation Yrotation Zrotation
											JOINT mixamorig:LeftHandIndex4
											{
												OFFSET 2.183182 0.110458 0.999585
												CHANNELS 3 Xrotation Yrotation Zrotation
												End Site
												{
													OFFSET 2.183868 0.110451 0.998074
												}
											}
										}
									}
								}
								JOINT mixamorig:LeftHandMiddle1
								{
									OFFSET 8.556145 -0.261200 0.258753
									CHANNELS 3 Xrotation Yrotation Zrotation
									JOINT mixamorig:LeftHandMiddle2
									{
										OFFSET 3.828903 -0.489014 -0.111505
										CHANNELS 3 Xrotation Yrotation Zrotation
										JOINT mixamorig:LeftHandMiddle3
										{
											OFFSET 3.696209 -0.166595 -0.107596
											CHANNELS 3 Xrotation Yrotation Zrotation
											JOINT mixamorig:LeftHandMiddle4
											{
												OFFSET 2.259281 0.534500 -0.065675
												CHANNELS 3 Xrotation Yrotation Zrotation
												End Site
												{
													OFFSET 2.259735 0.534134 -0.051267
												}
											}
										}
									}
								}
								JOINT mixamorig:LeftHandRing1
								{
									OFFSET 8.509293 -0.556679 -3.044941
									CHANNELS 3 Xrotation Yrotation Zrotation
									JOINT mixamorig:LeftHandRing2
									{
										OFFSET 2.995171 -0.303261 -0.843591
										CHANNELS 3 Xrotation Yrotation Zrotation
										JOINT mixamorig:LeftHandRing3
										{
											OFFSET 2.968273 -0.101997 -0.834287
											CHANNELS 3 Xrotation Yrotation Zrotation
											JOINT mixamorig:LeftHandRing4
											{
												OFFSET 1.521358 -0.461468 -0.418735
												CHANNELS 3 Xrotation Yrotation Zrotation
												End Site
												{
													OFFSET 1.516514 -0.460747 -0.436712
												}
											}
										}
									}
								}
							}
						}
					}
				}
				JOINT mixamorig:RightShoulder
				{
					OFFSET -4.392150 8.825024 0.141388
					CHANNELS 3 Xrotation Yrotation Zrotation
					JOINT mixamorig:RightArm
					{
						OFFSET -8.774886 -2.970947 -0.094209
						CHANNELS 3 Xrotation Yrotation Zrotation
						JOINT mixamorig:RightForeArm
						{
							OFFSET -8.450586 -0.797386 -0.330665
							CHANNELS 3 Xrotation Yrotation Zrotation
							JOINT mixamorig:RightHand
							{
								OFFSET -18.458664 0.962341 0.025780
								CHANNELS 3 Xrotation Yrotation Zrotation
								JOINT mixamorig:RightHandThumb1
								{
									OFFSET -2.390282 -1.240040 2.604684
									CHANNELS 3 Xrotation Yrotation Zrotation
									JOINT mixamorig:RightHandThumb2
									{
										OFFSET -1.912228 -0.992111 2.083740
										CHANNELS 3 Xrotation Yrotation Zrotation
										JOINT mixamorig:RightHandThumb3
										{
											OFFSET -0.876358 -1.555370 2.930126
											CHANNELS 3 Xrotation Yrotation Zrotation
											JOINT mixamorig:RightHandThumb4
											{
												OFFSET -1.227077 -0.755932 1.835223
												CHANNELS 3 Xrotation Yrotation Zrotation
												End Site
												{
													OFFSET -1.124962 -0.750702 1.901603
												}
											}
										}
									}
								}
								JOINT mixamorig:RightHandIndex1
								{
									OFFSET -8.716801 -0.633743 3.098187
									CHANNELS 3 Xrotation Yrotation Zrotation
									JOINT mixamorig:RightHandIndex2
									{
										OFFSET -3.319706 -0.240585 1.198087
										CHANNELS 3 Xrotation Yrotation Zrotation
										JOINT mixamorig:RightHandIndex3
										{
											OFFSET -3.153255 -0.154724 1.138827
											CHANNELS 3 Xrotation Yrotation Zrotation
											JOINT mixamorig:RightHandIndex4
											{
												OFFSET -1.818684 -0.003197 0.655154
												CHANNELS 3 Xrotation Yrotation Zrotation
												End Site
												{
													OFFSET -1.818668 -0.003197 0.655188
												}
											}
										}
									}
								}
								JOINT mixamorig:RightHandMiddle1
								{
									OFFSET -8.158691 -0.528496 0.196552
									CHANNELS 3 Xrotation Yrotation Zrotation
									JOINT mixamorig:RightHandMiddle2
									{
										OFFSET -3.890194 -0.261169 -0.136423
										CHANNELS 3 Xrotation Yrotation Zrotation
										JOINT mixamorig:RightHandMiddle3
										{
											OFFSET -3.903057 -0.179909 -0.137173
											CHANNELS 3 Xrotation Yrotation Zrotation
											JOINT mixamorig:RightHandMiddle4
											{
												OFFSET -2.366261 0.198380 -0.083987
												CHANNELS 3 Xrotation Yrotation Zrotation
												End Site
												{
													OFFSET -2.366409 0.198326 -0.079799
												}
											}
										}
									}
								}
								JOINT mixamorig:RightHandRing1
								{
									OFFSET -7.616104 -0.395126 -2.681268
									CHANNELS 3 Xrotation Yrotation Zrotation
									JOINT mixamorig:RightHandRing2
									{
										OFFSET -3.235790 -0.462120 -1.101476
										CHANNELS 3 Xrotation Yrotation Zrotation
										JOINT mixamorig:RightHandRing3
										{
											OFFSET -3.179264 -0.138618 -1.084847
											CHANNELS 3 Xrotation Yrotation Zrotation
											JOINT mixamorig:RightHandRing4
											{
												OFFSET -1.963291 -0.101624 -0.668250
												CHANNELS 3 Xrotation Yrotation Zrotation
												End Site
												{
													OFFSET -1.963745 -0.101669 -0.666919
												}
											}
										}
									}
								}
							}
						}
					}
				}
			}
		}
	}
	JOINT mixamorig:LeftUpLeg
	{
		OFFSET 10.205382 -3.823519 0.155145
		CHANNELS 3 Xrotation Yrotation Zrotation
		JOINT mixamorig:LeftLeg
		{
			OFFSET 0.283732 -12.998343 0.567794
			CHANNELS 3 Xrotation Yrotation Zrotation
			JOINT mixamorig:LeftFoot
			{
				OFFSET -1.058953 -10.688869 -2.184322
				CHANNELS 3 Xrotation Yrotation Zrotation
				JOINT mixamorig:LeftToeBase
				{
					OFFSET 0.108145 -7.191069 7.560211
					CHANNELS 3 Xrotation Yrotation Zrotation
					JOINT mixamorig:LeftToe_End
					{
						OFFSET 0.070226 0.081726 4.490266
						CHANNELS 3 Xrotation Yrotation Zrotation
						End Site
						{
							OFFSET 0.070226 0.081726 4.490267
						}
					}
				}
			}
		}
	}
	JOINT mixamorig:RightUpLeg
	{
		OFFSET -10.205383 -3.823513 0.005508
		CHANNELS 3 Xrotation Yrotation Zrotation
		JOINT mixamorig:RightLeg
		{
			OFFSET -0.283728 -12.998341 0.610627
			CHANNELS 3 Xrotation Yrotation Zrotation
			JOINT mixamorig:RightFoot
			{
				OFFSET 1.058956 -10.688892 -1.945833
				CHANNELS 3 Xrotation Yrotation Zrotation
				JOINT mixamorig:RightToeBase
				{
					OFFSET -0.108150 -7.191040 7.372945
					CHANNELS 3 Xrotation Yrotation Zrotation
					JOINT mixamorig:RightToe_End
					{
						OFFSET -0.070229 0.081738 4.479398
						CHANNELS 3 Xrotation Yrotation Zrotation
						End Site
						{
							OFFSET -0.070229 0.081738 4.479399
						}
					}
				}
			}
		}
	}
}
MOTION
Frames: 4
Frame Time: 0.016667
-0.756540 34.499783 2.740418 -1.972664 -0.056064 6.563712 -0.522652 2.786623 1.855642 0.013999 6.194745 -7.449834 -0.082595 6.136941 -7.492065 -1.906326 -0.261285 0.986619 2.770582 -1.731266 11.479945 0.000000 0.000000 -0.000000 0.232015 5.636616 -6.664778 0.147789 -38.409576 24.762260 -1.492677 -12.697587 -8.506800 0.772072 -24.277738 18.290145 8.214608 18.317396 1.845422 1.111045 27.862100 11.541952 -2.289513 -13.278985 -6.237949 0.000001 -0.000001 0.000001 0.928502 22.828369 -0.980667 -0.950590 -0.030985 2.078541 2.310187 -0.093937 -5.054144 -0.000001 0.000005 0.000001 -0.106755 -3.387093 5.542591 -0.136511 0.009233 -4.709215 -0.455807 0.066371 -15.878038 0.000000 0.000001 -0.000003 -0.048577 -17.392189 3.964590 -0.990842 0.060738 -3.533868 3.833912 0.767652 13.845972 0.000000 0.000006 -0.000004 0.150768 -8.351256 6.593380 4.467908 31.736259 54.381857 32.959669 99.885226 -30.474002 -0.132054 23.381491 -46.464869 9.509193 -17.047876 0.199758 -0.386889 -30.116828 -13.748949 1.603851 14.152291 7.697682 0.000002 -0.000001 -0.000000 1.152349 -18.385298 -0.237569 0.427892 -0.008577 1.182702 0.797199 0.085904 2.218771 -0.000000 0.000001 -0.000000 -0.218090 3.374343 -0.127891 -0.042369 0.003734 1.199112 -0.262365 0.003304 7.422943 0.000000 -0.000002 -0.000001 -0.670340 20.000507 -4.200348 -1.724800 -0.033898 5.050227 0.144665 -0.044673 -0.418775 0.000000 -0.000002 0.000000 -19.848998 5.155957 -11.721995 38.690867 4.523882 -0.582187 14.788746 0.412599 11.215126 -35.085784 -0.000066 -0.000019 -0.000000 -0.000000 0.000000 -53.350881 2.348145 2.916156 84.457727 -13.181990 -3.128020 41.346055 -5.133559 -11.927826 0.000009 -0.000004 0.000004 -0.000001 -0.000000 -0.000000 
-0.930728 34.438255 2.817875 -2.643872 2.225419 6.768383 -0.242918 2.569186 1.604200 0.362198 5.415593 -7.673075 0.277859 5.378163 -7.700318 -1.907742 -0.325209 1.151646 2.684984 -1.905078 12.046893 -0.000000 0.000000 0.000000 0.243245 5.923274 -7.282586 -1.466924 -42.526776 23.809138 -1.334380 -11.090322 -8.472555 -0.153410 -24.206074 19.852853 8.214605 18.317386 1.845421 1.111048 27.862097 11.541958 -2.289510 -13.278986 -6.237947 -0.000001 0.000002 -0.000004 0.928501 22.828365 -0.980664 -0.950590 -0.030987 2.078546 2.310187 -0.093935 -5.054144 -0.000000 -0.000000 0.000000 -0.106752 -3.387092 5.542595 -0.136514 0.009240 -4.709217 -0.455808 0.066368 -15.878037 -0.000001 -0.000001 -0.000004 -0.048576 -17.392192 3.964594 -0.990839 0.060740 -3.533865 3.833908 0.767655 13.845970 0.000002 0.000003 -0.000002 0.159014 -7.683445 6.324787 9.295696 31.704662 54.211293 47.716316 97.311098 -45.072968 2.570251 22.895786 -49.403390 9.509196 -17.047874 0.199757 -0.386885 -30.116821 -13.748945 1.603852 14.152287 7.697678 0.000002 -0.000001 -0.000001 1.152350 -18.385295 -0.237569 0.427891 -0.008579 1.182701 0.797199 0.085904 2.218772 0.000000 0.000001 0.000000 -0.218090 3.374337 -0.127889 -0.042369 0.003734 1.199111 -0.262366 0.003301 7.422942 0.000001 0.000002 -0.000000 -0.670340 20.000503 -4.200346 -1.724800 -0.033895 5.050227 0.144666 -0.044672 -0.418774 -0.000000 -0.000006 0.000000 -19.563810 5.238659 -11.677019 39.201239 3.647161 -0.733813 15.195930 0.458710 11.374796 -35.410002 -0.000064 -0.000021 0.000000 0.000000 0.000001 -53.824350 2.555928 2.195566 81.850542 -13.012492 -3.004213 41.307481 -5.049654 -12.845022 -2.747711 -0.159230 3.293010 0.000002 0.000001 -0.000000 
-1.135842 34.344025 2.961389 -3.464268 5.376903 7.128391 0.075265 2.222829 1.179889 0.737016 4.319078 -7.852160 0.672304 4.305123 -7.867201 -1.917442 -0.409484 1.307155 2.575629 -2.200779 12.641772 -0.000000 0.000000 0.000000 0.255808 6.258498 -7.986656 -3.517411 -47.488396 21.441268 -1.249223 -10.217909 -8.455939 -0.839301 -24.122859 21.671355 8.214609 18.317398 1.845418 1.111049 27.862097 11.541957 -2.289514 -13.278986 -6.237949 0.000002 -0.000003 -0.000001 0.928506 22.828371 -0.980665 -0.950592 -0.030983 2.078545 2.310186 -0.093933 -5.054146 -0.000003 -0.000000 0.000001 -0.106755 -3.387093 5.542593 -0.136511 0.009238 -4.709215 -0.455806 0.066374 -15.878037 -0.000002 -0.000000 -0.000004 -0.048573 -17.392191 3.964592 -0.990837 0.060742 -3.533867 3.833910 0.767657 13.845974 0.000004 0.000004 0.000005 0.164727 -6.893736 5.941655 14.346570 30.659172 53.852473 86.860110 95.439196 -84.001444 6.422937 21.528457 -51.801432 9.509200 -17.047874 0.199754 -0.386889 -30.116828 -13.748943 1.603849 14.152294 7.697680 -0.000001 -0.000001 -0.000001 1.152350 -18.385303 -0.237570 0.427892 -0.008579 1.182701 0.797197 0.085901 2.218772 -0.000000 -0.000001 -0.000000 -0.218090 3.374339 -0.127891 -0.042370 0.003730 1.199111 -0.262365 0.003301 7.422944 0.000001 0.000003 -0.000001 -0.670340 20.000503 -4.200348 -1.724800 -0.033892 5.050229 0.144664 -0.044668 -0.418776 -0.000001 -0.000001 -0.000001 -19.179839 5.395625 -11.715605 40.090243 2.805855 -0.790986 15.163017 0.537950 11.787893 -35.919436 -0.000070 -0.000019 -0.000000 -0.000000 0.000000 -53.591321 2.843402 0.669557 77.790985 -12.648867 -2.797929 40.495048 -4.281884 -13.765532 -9.571493 -1.995133 11.617891 -0.000003 0.000002 -0.000000 
-1.355733 34.201904 3.191729 -4.405098 9.474876 7.663211 0.378770 1.703534 0.555239 1.068751 2.891046 -7.966177 1.028446 2.897705 -7.974335 -1.924135 -0.522232 1.500609 2.452510 -2.577866 13.184561 -0.000000 0.000000 -0.000000 0.271267 6.591543 -8.683614 -6.449220 -53.014378 17.242116 -1.250236 -10.228305 -8.456140 -1.237749 -24.032734 23.880828 8.214608 18.317384 1.845418 1.111043 27.862100 11.541953 -2.289515 -13.278989 -6.237951 -0.000000 -0.000003 0.000001 0.928502 22.828364 -0.980667 -0.950589 -0.030988 2.078546 2.310187 -0.093935 -5.054142 0.000000 -0.000002 -0.000001 -0.106757 -3.387093 5.542596 -0.136512 0.009234 -4.709216 -0.455807 0.066369 -15.878040 -0.000000 -0.000002 -0.000002 -0.048575 -17.392192 3.964595 -0.990840 0.060738 -3.533866 3.833911 0.767653 13.845970 0.000000 0.000001 -0.000001 0.169630 -6.117684 5.499083 19.686816 28.954234 52.919828 136.825724 97.928363 -133.683604 11.464021 19.326042 -53.349590 9.509196 -17.047877 0.199756 -0.386892 -30.116828 -13.748949 1.603850 14.152293 7.697679 0.000001 0.000000 -0.000004 1.152352 -18.385302 -0.237568 0.427887 -0.008583 1.182702 0.797202 0.085902 2.218772 0.000001 0.000001 0.000000 -0.218089 3.374338 -0.127890 -0.042370 0.003727 1.199113 -0.262371 0.003301 7.422944 0.000001 -0.000001 -0.000001 -0.670341 20.000508 -4.200347 -1.724798 -0.033899 5.050229 0.144664 -0.044668 -0.418775 0.000001 0.000003 0.000002 -18.827587 5.645992 -11.753736 41.555148 1.863638 -0.687232 14.619976 0.632679 12.256109 -36.558509 -0.000072 -0.000025 0.000000 0.000001 0.000000 -52.629767 3.038431 -1.591440 72.379904 -11.292654 -2.516656 39.174728 -3.641100 -14.153648 -16.915717 -5.929472 18.915739 -0.000002 -0.000001 -0.000000 
